<?xml version="1.0" encoding="utf-8"?>
<!-- Generator: Adobe Illustrator 16.0.4, SVG Export Plug-In . SVG Version: 6.00 Build 0)  -->
<!DOCTYPE svg PUBLIC "-//W3C//DTD SVG 1.1//EN" "http://www.w3.org/Graphics/SVG/1.1/DTD/svg11.dtd">
<svg version="1.1" id="Layer_1" xmlns="http://www.w3.org/2000/svg" xmlns:xlink="http://www.w3.org/1999/xlink" x="0px" y="0px"
	 width="41.379px" height="40.41px" viewBox="0 -0.025 41.379 40.41" enable-background="new 0 -0.025 41.379 40.41"
	 xml:space="preserve">
<g>
	<path fill="#FFFFFF" d="M20.689,0.002C9.266,0.002,0,9.262,0,20.69c0,9.141,5.928,16.897,14.148,19.632
		c1.035,0.191,1.416-0.448,1.416-0.993c0-0.494-0.021-2.123-0.032-3.854c-5.754,1.252-6.968-2.44-6.968-2.44
		c-0.941-2.392-2.299-3.027-2.299-3.027c-1.875-1.283,0.142-1.258,0.142-1.258c2.078,0.146,3.172,2.135,3.172,2.135
		c1.844,3.162,4.843,2.246,6.022,1.719c0.186-1.338,0.72-2.25,1.313-2.768c-4.595-0.523-9.429-2.297-9.429-10.227
		c0-2.258,0.809-4.104,2.134-5.553c-0.216-0.521-0.923-2.625,0.199-5.473c0,0,1.737-0.559,5.691,2.118
		c1.65-0.457,3.423-0.688,5.179-0.695c1.757,0.008,3.531,0.239,5.183,0.695c3.949-2.676,5.684-2.118,5.684-2.118
		c1.129,2.848,0.422,4.952,0.203,5.473c1.326,1.449,2.133,3.294,2.133,5.553c0,7.948-4.842,9.696-9.447,10.21
		c0.74,0.644,1.402,1.902,1.402,3.83c0,2.771-0.023,4.998-0.023,5.681c0,0.549,0.371,1.194,1.42,0.991
		c8.217-2.737,14.137-10.491,14.137-19.63C41.379,9.262,32.116,0.002,20.689,0.002z"/>
	<path fill="#FFFFFF" d="M7.836,29.707C7.79,29.809,7.63,29.842,7.48,29.77c-0.152-0.065-0.233-0.207-0.185-0.312
		c0.047-0.104,0.207-0.135,0.358-0.062C7.806,29.461,7.888,29.604,7.836,29.707L7.836,29.707z"/>
	<path fill="#FFFFFF" d="M8.674,30.641c-0.098,0.092-0.293,0.049-0.424-0.096c-0.136-0.144-0.161-0.336-0.06-0.43
		c0.101-0.093,0.289-0.048,0.425,0.096C8.751,30.355,8.778,30.549,8.674,30.641L8.674,30.641z"/>
	<path fill="#FFFFFF" d="M9.488,31.832c-0.126,0.088-0.332,0.006-0.461-0.179c-0.126-0.186-0.126-0.403,0.002-0.493
		c0.13-0.091,0.333-0.009,0.463,0.176C9.621,31.521,9.621,31.742,9.488,31.832L9.488,31.832z"/>
	<path fill="#FFFFFF" d="M10.608,32.982c-0.113,0.127-0.354,0.093-0.53-0.078c-0.184-0.166-0.232-0.403-0.12-0.528
		c0.117-0.125,0.358-0.088,0.537,0.08C10.674,32.621,10.729,32.859,10.608,32.982L10.608,32.982z"/>
	<path fill="#FFFFFF" d="M12.148,33.65c-0.048,0.164-0.281,0.238-0.518,0.17c-0.232-0.071-0.386-0.262-0.339-0.426
		c0.048-0.164,0.283-0.24,0.52-0.166C12.046,33.301,12.196,33.486,12.148,33.65L12.148,33.65z"/>
	<path fill="#FFFFFF" d="M13.843,33.777c0.006,0.173-0.191,0.312-0.442,0.314c-0.246,0.004-0.444-0.133-0.446-0.301
		c0-0.172,0.192-0.312,0.439-0.318C13.642,33.471,13.843,33.609,13.843,33.777L13.843,33.777z"/>
	<path fill="#FFFFFF" d="M15.416,33.508c0.033,0.166-0.141,0.338-0.384,0.381c-0.238,0.045-0.461-0.057-0.491-0.221
		c-0.029-0.172,0.143-0.344,0.386-0.39C15.168,33.24,15.389,33.34,15.416,33.508L15.416,33.508z"/>
</g>
</svg>
