<?xml version="1.0" encoding="utf-8"?>
<!-- Generator: Adobe Illustrator 16.0.4, SVG Export Plug-In . SVG Version: 6.00 Build 0)  -->
<!DOCTYPE svg PUBLIC "-//W3C//DTD SVG 1.1//EN" "http://www.w3.org/Graphics/SVG/1.1/DTD/svg11.dtd">
<svg version="1.1"
	 id="svg2" inkscape:version="0.48.4 r9939" sodipodi:docname="Twitter_bird_logo_2012.svg" xmlns:inkscape="http://www.inkscape.org/namespaces/inkscape" xmlns:sodipodi="http://sodipodi.sourceforge.net/DTD/sodipodi-0.dtd" xmlns:svg="http://www.w3.org/2000/svg" xmlns:rdf="http://www.w3.org/1999/02/22-rdf-syntax-ns#" xmlns:dc="http://purl.org/dc/elements/1.1/" xmlns:cc="http://creativecommons.org/ns#"
	 xmlns="http://www.w3.org/2000/svg" xmlns:xlink="http://www.w3.org/1999/xlink" x="0px" y="0px" width="41.38px"
	 height="40.405px" viewBox="65.063 49.487 41.38 40.405" enable-background="new 65.063 49.487 41.38 40.405" xml:space="preserve"
	>
<sodipodi:namedview  id="base" inkscape:window-height="962" inkscape:pageopacity="0.0" fit-margin-right="0" inkscape:current-layer="layer1" inkscape:window-width="1280" inkscape:window-x="-8" inkscape:document-units="px" inkscape:pageshadow="2" inkscape:window-y="-8" inkscape:window-maximized="1" fit-margin-bottom="0" pagecolor="#ffffff" bordercolor="#666666" borderopacity="1.0" inkscape:zoom="3.7200571" showgrid="false" inkscape:cy="50.181142" fit-margin-top="0" inkscape:cx="101.29413" fit-margin-left="0">
	</sodipodi:namedview>
<g id="layer1" transform="translate(-282.32053,-396.30734)" inkscape:groupmode="layer" inkscape:label="Layer 1">
	<path id="path5" inkscape:connector-curvature="0" fill="#FFFFFF" d="M388.835,453.108c-1.523,0.676-3.161,1.132-4.879,1.338
		c1.753-1.052,3.101-2.717,3.734-4.701c-1.642,0.974-3.46,1.681-5.395,2.062c-1.55-1.652-3.759-2.683-6.201-2.683
		c-4.693,0-8.497,3.803-8.497,8.495c0,0.667,0.075,1.315,0.22,1.937c-7.061-0.354-13.32-3.737-17.511-8.877
		c-0.731,1.255-1.151,2.714-1.151,4.271c0,2.948,1.5,5.548,3.78,7.071c-1.392-0.043-2.702-0.426-3.848-1.062
		c-0.001,0.035-0.001,0.071-0.001,0.106c0,4.117,2.929,7.551,6.815,8.331c-0.713,0.194-1.464,0.297-2.238,0.297
		c-0.548,0-1.081-0.053-1.599-0.151c1.081,3.376,4.218,5.832,7.936,5.899c-2.908,2.279-6.57,3.638-10.551,3.638
		c-0.686,0-1.362-0.041-2.027-0.119c3.76,2.41,8.226,3.817,13.023,3.817c15.627,0,24.173-12.944,24.173-24.173
		c0-0.369-0.008-0.735-0.024-1.1C386.256,456.308,387.696,454.812,388.835,453.108L388.835,453.108z"/>
</g>
</svg>
